<svg xmlns="http://www.w3.org/2000/svg" xmlns:xlink="http://www.w3.org/1999/xlink" viewBox="0 0 500 500"><defs><clipPath id="freepik--clip-path--inject-14"><path d="M239.5,322s-10.79.59-14.62,2.74-4.55,14.84-4.55,14.84l-11.48,24.64s-30.87-21.53-33.5-23.68-3.35-3.83-6-5.51-3.59-1.67-6.94-1.67-3.83.48-3.59,1.43,1.44,1.2,2.39,1.2a21.63,21.63,0,0,1,3.12.48l-9.58,3.83c-2.39.95-1.91-2.88-4.06-2.88s-1.92,5.51,1.67,8.14,6,1.91,8.85,1.67,9.58-1.19,9.58-1.19,18.42,16.27,25.12,22.25,15.79,11.72,19.14,9.33,16-25.84,16-25.84l8.13-21.53S241.45,325.73,239.5,322Z" style="fill:#fff;stroke:#263238;stroke-linecap:round;stroke-miterlimit:10"></path></clipPath><clipPath id="freepik--clip-path-2--inject-14"><path d="M153.05,346.09s-4.66-3.78-2.15-7.48c.62-.92,2,.47,2.4,3s1.66,3.51,2.31,3.69" style="fill:#fff;stroke:#263238;stroke-linecap:round;stroke-miterlimit:10"></path></clipPath><clipPath id="freepik--clip-path-3--inject-14"><path d="M156.53,345.26c-1.11,0-1.05-3-3.14-4.43-1.66-1.17-1.45,1.13-1.06,3a3.89,3.89,0,0,0,3.13,3.07h0a5.4,5.4,0,0,0,2.19.09" style="fill:#fff;stroke:#263238;stroke-linecap:round;stroke-miterlimit:10"></path></clipPath><clipPath id="freepik--clip-path-4--inject-14"><path d="M170.57,340.37s-1.57-1.11-4.62-.09-6.65,5.45-7.48,5.08a3.71,3.71,0,0,1-1.66-2c-.47-.92-1.38-2.25-2-1.18-1.38,2.34,2.38,5,2.38,5s.52.44,3.43.09S170.1,346,170.1,346" style="fill:#fff;stroke:#263238;stroke-linecap:round;stroke-miterlimit:10"></path></clipPath><clipPath id="freepik--clip-path-5--inject-14"><path d="M267.51,321.78s11.37.81,15.2,3,4.55,14.84,4.55,14.84l11.48,24.64s30.87-21.53,33.5-23.68,3.35-3.83,6-5.51,3.59-1.67,6.94-1.67,3.83.48,3.59,1.43-1.44,1.2-2.4,1.2a21.67,21.67,0,0,0-3.11.48l9.57,3.83c2.4.95,1.92-2.88,4.07-2.88s1.92,5.51-1.67,8.14-6,1.91-8.86,1.67-9.57-1.19-9.57-1.19-18.42,16.27-25.12,22.25-15.79,11.72-19.14,9.33-16-25.84-16-25.84l-8.13-21.53S265.57,325.51,267.51,321.78Z" style="fill:#fff;stroke:#263238;stroke-linecap:round;stroke-miterlimit:10"></path></clipPath><clipPath id="freepik--clip-path-6--inject-14"><path d="M355.69,344.73s2-5.65,1-6.12-2,.47-2.4,3-1.66,3.51-2.31,3.69" style="fill:#fff;stroke:#263238;stroke-linecap:round;stroke-miterlimit:10"></path></clipPath><clipPath id="freepik--clip-path-7--inject-14"><path d="M354.17,345.74s2.52-7.13-.4-5.24c-2.15,1.39-1.6,4.76-2.71,4.76" style="fill:#fff;stroke:#263238;stroke-linecap:round;stroke-miterlimit:10"></path></clipPath><clipPath id="freepik--clip-path-8--inject-14"><path d="M337,340.37s1.57-1.11,4.62-.09,6.65,5.45,7.48,5.08a3.71,3.71,0,0,0,1.66-2c.46-.92,1.3-1.47,1.85-.37s-1.11,4.35-1.11,4.35-1,.71-3.45.14a59,59,0,0,0-8.41-1.39" style="fill:#fff;stroke:#263238;stroke-linecap:round;stroke-miterlimit:10"></path></clipPath><clipPath id="freepik--clip-path-9--inject-14"><path d="M249.32,307.44s-.49,5.57-2.78,9.33-7,5.23-7,5.23l-9.32,28.64L235.09,370S226.41,383.2,223,391.22s.69,17.09,4.29,20.85,8.38,8.86,20.58,8.38c17-.67,29,.88,34.45-5.5s6-18.43-.48-27.52c-3.92-5.53-9.27-17.48-9.27-17.48L277.87,350,269.75,322s-4.89-.28-7.83-3.88-2.29-10.15-2.29-10.15Z" style="fill:#fff;stroke:#263238;stroke-linecap:round;stroke-miterlimit:10"></path></clipPath><clipPath id="freepik--clip-path-10--inject-14"><path d="M241.39,294.45s-3-3.92-4.06-1,4.21,5.51,4.21,5.51Z" style="fill:#fff;stroke:#263238;stroke-linecap:round;stroke-miterlimit:10"></path></clipPath><clipPath id="freepik--clip-path-11--inject-14"><path d="M267.92,294.45s3.05-3.92,4.06-1-4.2,5.51-4.2,5.51Z" style="fill:#fff;stroke:#263238;stroke-linecap:round;stroke-miterlimit:10"></path></clipPath><clipPath id="freepik--clip-path-12--inject-14"><path d="M254.79,311.35h0a13.16,13.16,0,0,1-13.16-13.16V278a4.9,4.9,0,0,1,4.9-4.91H263A4.91,4.91,0,0,1,268,278v20.22A13.17,13.17,0,0,1,254.79,311.35Z" style="fill:#fff;stroke:#263238;stroke-linecap:round;stroke-miterlimit:10"></path></clipPath><clipPath id="freepik--clip-path-13--inject-14"><path d="M291.09,423.38s1.18-.78.59-2.75-3.74-.4-5.91-.4-10.44-.79-14.37-1.18c-3.37-.34-8.88-.24-10.41-.21a12.37,12.37,0,0,1-1.43,7l.77.08c6.7.66,9.61.79,11.66,1.22,3.74.79,7.87,3.94,12,3.75s7.88-3,7.88-4.73A4.66,4.66,0,0,0,291.09,423.38Z" style="fill:#fff;stroke:#263238;stroke-linecap:round;stroke-miterlimit:10"></path></clipPath><clipPath id="freepik--clip-path-14--inject-14"><path d="M240.43,420.92s-14.59.57-19.22.25-8.14-2.56-9.41-1.44.32,2.87.32,2.87-.48,2.71.8,4.15,3,2.71,8.45,4.31,11-.66,14-1.46l6.45-1.7S240.34,425.61,240.43,420.92Z" style="fill:#fff;stroke:#263238;stroke-linecap:round;stroke-miterlimit:10"></path></clipPath></defs><g id="freepik--background-simple--inject-14"><path d="M417.82,232.72a193.86,193.86,0,0,0-2.28-46.9,158.28,158.28,0,0,0-13-40.14c-30.66-64.06-103.38-105.12-174-90.88-39,7.85-86.72,35.15-99.08,75.43-8.74,28.47-5,59.65-18.93,86.7-14.3,27.87-28.77,52.55-25,85.39,4,35.18,27.87,65.91,57.55,85.21,36.85,24,85.44,37.24,129.31,34.16C358.58,415.65,412.24,317.4,417.82,232.72Z" style="fill:#EDA5E7"></path><path d="M417.82,232.72a193.86,193.86,0,0,0-2.28-46.9,158.28,158.28,0,0,0-13-40.14c-30.66-64.06-103.38-105.12-174-90.88-39,7.85-86.72,35.15-99.08,75.43-8.74,28.47-5,59.65-18.93,86.7-14.3,27.87-28.77,52.55-25,85.39,4,35.18,27.87,65.91,57.55,85.21,36.85,24,85.44,37.24,129.31,34.16C358.58,415.65,412.24,317.4,417.82,232.72Z" style="fill:#fff;opacity:0.8"></path></g><g id="freepik--Icons--inject-14"><rect x="374.13" y="192.45" width="46.32" height="28.18" rx="4.24" style="fill:#263238;opacity:0.2"></rect><path d="M374.92,195.55l20.14,10.34a4.54,4.54,0,0,0,4.08,0l20.66-10.42" style="fill:none;stroke:#fff;stroke-linecap:round;stroke-linejoin:round;stroke-width:0.75px"></path><path d="M126.24,190.47a1.62,1.62,0,0,0-1.28-.63H83.62L82,185.05A1.6,1.6,0,0,0,80.5,184H70a1.61,1.61,0,0,0,0,3.21h9.31l10.09,30.29a1.6,1.6,0,0,0,1.52,1.1h.59a5.53,5.53,0,1,0,9.29,0h7.71a5.53,5.53,0,1,0,9.29,0h1.24a1.61,1.61,0,0,0,0-3.21h-27l-1.76-5.29h30a1.61,1.61,0,0,0,1.55-1.19l4.57-17A1.6,1.6,0,0,0,126.24,190.47Zm-30,33.37a2.32,2.32,0,1,1,2.32-2.32A2.32,2.32,0,0,1,96.19,223.84Zm17,0a2.32,2.32,0,1,1,2.32-2.32A2.32,2.32,0,0,1,113.19,223.84Zm4.28-17h-5.94V193.05h5.94Zm-15.09-13.79h5.94v13.79h-5.94Zm-3.21,13.79h-6V193.05h6ZM84.69,193.05H90v13.79h-.72Zm36,8.12v-8.12h2.19Z" style="fill:#263238;opacity:0.2"></path><path d="M380,114l3.71-1.69-.79-4.45-4.09-.32a17.56,17.56,0,0,0-2.05-3.88l2.11-3.56-3.19-3.2-3.59,2.14a17.81,17.81,0,0,0-6.86-2.8l-1-4.1h-4.52l-1,4.12a17.73,17.73,0,0,0-4.07,1.3l-3.23-2.8-3.7,2.59,1.52,4a18.42,18.42,0,0,0-2.59,3.37l-4.26-.44-1.55,4.25,3.53,2.39a17.52,17.52,0,0,0-.26,3c0,.43,0,.85.05,1.27l-3.7,2.07,1.17,4.37,4.19,0a18.08,18.08,0,0,0,2.31,3.66L346.29,129l3.46,2.9,3.36-2.4a18.3,18.3,0,0,0,4,1.71l.67,4,4.51.4,1.35-3.84a17.84,17.84,0,0,0,4.34-.93l2.84,2.88,3.92-2.26-1.08-3.89a18,18,0,0,0,3-3.28l4,.73L382.6,121l-3.12-2.58A18.23,18.23,0,0,0,380,114Zm-6.69-.08a11.29,11.29,0,1,1-11.29-11.29A11.28,11.28,0,0,1,373.35,114Z" style="fill:#263238;opacity:0.2"></path><path d="M365.91,312.22a1.83,1.83,0,0,0,.68,2.44h0a2.21,2.21,0,0,0,3-.69l5.27-8.13.1-.18,6.78-.72-.69,1.35a.93.93,0,0,0,.27,1.19.89.89,0,0,0,1.29-.3l1.37-2.47,5.1-.54-1,1.88a.9.9,0,0,0,.33,1.18h0a.54.54,0,0,0,1,.14l1.91-3.44,3.38-.36a4.21,4.21,0,0,0,3.09-1.87l.56-.84L388,299.78s-6.71-.61-7.76-3.91l5.17-9.66.05-.13,7.17-.78,1.57-2.08-6.87-1.69.47-1.13a.11.11,0,0,0-.18-.12l-1,1-4.76-5.49-1.36,2.53,2.87,6.21-.18.18L377.6,293c-1.05.88-3,2-4.62.16-2.46-2.67-8.93-13.08-8.93-13.08l-.64,1.59a4.42,4.42,0,0,0,0,3.24l1.14,3L363,290.8a.93.93,0,0,0,.27,1.19.91.91,0,0,0,1.3-.31l.8-1.44,1.68,4.39-1.48,2.88a.93.93,0,0,0,.28,1.2.9.9,0,0,0,1.29-.31L368,297l2.56,6.67Z" style="fill:#263238;opacity:0.2"></path><rect x="131.65" y="88.73" width="47.42" height="28.52" style="fill:#263238;opacity:0.2"></rect><circle cx="154.64" cy="102.52" r="8.43" style="fill:#fff"></circle><polygon points="160.76 102.52 151.49 97.17 151.49 107.87 160.76 102.52" style="fill:#263238;opacity:0.2"></polygon><path d="M121.62,279.64V302a6.3,6.3,0,0,0-3-.73c-2.9,0-5.24,1.81-5.24,4s2.34,4.05,5.24,4.05c4.88,0,5.24-3.34,5.24-3.34V286.34l13.92-2v15a6.41,6.41,0,0,0-3-.72c-2.9,0-5.24,1.81-5.24,4.05s2.34,4,5.24,4c2.57,0,4.71-1.45,5.14-3.34L140,284v-7Z" style="fill:#263238;opacity:0.2"></path><path d="M273.05,76V73.41a1.61,1.61,0,0,0-1.61-1.61h-2.73a1.61,1.61,0,0,0-1.61,1.61v9.37h-27V73.41a1.61,1.61,0,0,0-1.61-1.61h-2.91A1.61,1.61,0,0,0,234,73.41V76h-4.29a1.83,1.83,0,0,0-1.83,1.83V90a1.84,1.84,0,0,0,1.83,1.84H234v2.56A1.61,1.61,0,0,0,235.57,96h2.91a1.61,1.61,0,0,0,1.61-1.61V87h27v7.34A1.61,1.61,0,0,0,268.71,96h2.73a1.61,1.61,0,0,0,1.61-1.61V91.8h4.12A1.84,1.84,0,0,0,279,90V77.81A1.83,1.83,0,0,0,277.17,76Z" style="fill:#263238;opacity:0.2"></path></g><g id="freepik--Clock--inject-14"><circle cx="253.59" cy="217.37" r="111.12" style="fill:#263238;opacity:0.2"></circle><circle cx="253.59" cy="217.37" r="102.4" style="fill:#EDA5E7;stroke:#263238;stroke-miterlimit:10"></circle><g style="opacity:0.2"><path d="M253.59,220.72a3.33,3.33,0,0,1-2.4-1l-64.41-66.15a3.35,3.35,0,0,1,4.8-4.67L256,215a3.35,3.35,0,0,1-2.4,5.69Z" style="fill:#263238"></path></g><path d="M224.7,240.05a3.35,3.35,0,0,1-1.87-6.14l28.9-19.33a3.35,3.35,0,0,1,3.72,5.57l-28.89,19.33A3.36,3.36,0,0,1,224.7,240.05Z" style="fill:#263238;opacity:0.2"></path><path d="M257.74,217.37a4.15,4.15,0,1,0-4.15,4.14A4.15,4.15,0,0,0,257.74,217.37Z" style="fill:#263238;stroke:#263238;stroke-linecap:round;stroke-miterlimit:10"></path><line x1="253.67" y1="124.13" x2="253.67" y2="137.97" style="fill:#fff;stroke:#263238;stroke-linecap:round;stroke-miterlimit:10;stroke-width:2px"></line><line x1="253.67" y1="295.69" x2="253.67" y2="309.53" style="fill:#fff;stroke:#263238;stroke-linecap:round;stroke-miterlimit:10;stroke-width:2px"></line><line x1="346.37" y1="216.83" x2="332.52" y2="216.83" style="fill:#fff;stroke:#263238;stroke-linecap:round;stroke-miterlimit:10;stroke-width:2px"></line><line x1="174.81" y1="216.83" x2="160.97" y2="216.83" style="fill:#fff;stroke:#263238;stroke-linecap:round;stroke-miterlimit:10;stroke-width:2px"></line><line x1="302.28" y1="137.9" x2="295.02" y2="149.69" style="fill:#fff;stroke:#263238;stroke-linecap:round;stroke-miterlimit:10;stroke-width:2px"></line><line x1="212.31" y1="283.97" x2="205.05" y2="295.76" style="fill:#fff;stroke:#263238;stroke-linecap:round;stroke-miterlimit:10;stroke-width:2px"></line><line x1="335.22" y1="172.76" x2="323.04" y2="179.34" style="fill:#fff;stroke:#263238;stroke-linecap:round;stroke-miterlimit:10;stroke-width:2px"></line><line x1="184.29" y1="254.32" x2="172.11" y2="260.9" style="fill:#fff;stroke:#263238;stroke-linecap:round;stroke-miterlimit:10;stroke-width:2px"></line><line x1="332.6" y1="265.45" x2="320.81" y2="258.18" style="fill:#fff;stroke:#263238;stroke-linecap:round;stroke-miterlimit:10;stroke-width:2px"></line><line x1="186.53" y1="175.48" x2="174.74" y2="168.22" style="fill:#fff;stroke:#263238;stroke-linecap:round;stroke-miterlimit:10;stroke-width:2px"></line><line x1="297.74" y1="298.39" x2="291.16" y2="286.2" style="fill:#fff;stroke:#263238;stroke-linecap:round;stroke-miterlimit:10;stroke-width:2px"></line><line x1="216.18" y1="147.46" x2="209.6" y2="135.28" style="fill:#fff;stroke:#263238;stroke-linecap:round;stroke-miterlimit:10;stroke-width:2px"></line></g><g id="freepik--Shadow--inject-14"><ellipse cx="251.49" cy="443.51" rx="79.71" ry="9.42" style="fill:#EDA5E7"></ellipse><ellipse cx="251.49" cy="443.51" rx="79.71" ry="9.42" style="fill:#fff;opacity:0.5"></ellipse></g></svg>
